ffmpeg started on 2016-12-12 at 00:06:39
Report written to "Output/theora/results/ffmpeg/crowd_run_2160p50500k.log"
Command line:
Tools/ffmpeg/ffmpeg -benchmark -y -i Input/y4m/crowd_run_2160p50.y4m -c:v libtheora -b:v 500k -an Output/theora/encoded/crowd_run_2160p50500k.mkv
ffmpeg version N-82227-gdb23fde Copyright (c) 2000-2016 the FFmpeg developers
  built with gcc 5.4.0 (Ubuntu 5.4.0-6ubuntu1~16.04.2) 20160609
  configuration: --prefix=/home/jaroslav/ffmpeg_build --pkg-config-flags=--static --extra-cflags=-I/home/jaroslav/ffmpeg_build/include --extra-ldflags=-L/home/jaroslav/ffmpeg_build/lib --bindir=/home/jaroslav/bin --enable-gpl --enable-libass --enable-libfdk-aac --enable-libfreetype --enable-libmp3lame --enable-libopus --enable-libtheora --enable-libvorbis --enable-libvpx --enable-libx264 --enable-libx265 --enable-nvenc --enable-libmfx --enable-libxvid --enable-libgsm --enable-libopencore-amrnb --enable-version3 --enable-nonfree
  libavutil      55. 35.100 / 55. 35.100
  libavcodec     57. 66.101 / 57. 66.101
  libavformat    57. 57.100 / 57. 57.100
  libavdevice    57.  2.100 / 57.  2.100
  libavfilter     6. 66.100 /  6. 66.100
  libswscale      4.  3.100 /  4.  3.100
  libswresample   2.  4.100 /  2.  4.100
  libpostproc    54.  2.100 / 54.  2.100
Input #0, yuv4mpegpipe, from 'Input/y4m/crowd_run_2160p50.y4m':
  Duration: 00:00:10.00, start: 0.000000, bitrate: 4976642 kb/s
    Stream #0:0: Video: rawvideo (I420 / 0x30323449), yuv420p(progressive), 3840x2160, SAR 1:1 DAR 16:9, 50 fps, 50 tbr, 50 tbn, 50 tbc
Output #0, matroska, to 'Output/theora/encoded/crowd_run_2160p50500k.mkv':
  Metadata:
    encoder         : Lavf57.57.100
    Stream #0:0: Video: theora (libtheora) (theo / 0x6F656874), yuv420p, 3840x2160 [SAR 1:1 DAR 16:9], q=2-31, 500 kb/s, 50 fps, 1k tbn, 50 tbc
    Metadata:
      encoder         : Lavc57.66.101 libtheora
Stream mapping:
  Stream #0:0 -> #0:0 (rawvideo (native) -> theora (libtheora))
Press [q] to stop, [?] for help
frame=    3 fps=2.5 q=-0.0 size=       4kB time=00:00:00.04 bitrate= 779.5kbits/s speed=0.0342x    frame=    5 fps=2.7 q=-0.0 size=       4kB time=00:00:00.08 bitrate= 394.6kbits/s speed=0.0432x    frame=    7 fps=2.7 q=-0.0 size=       4kB time=00:00:00.12 bitrate= 264.1kbits/s speed=0.0472x    frame=    9 fps=2.8 q=-0.0 size=       4kB time=00:00:00.16 bitrate= 198.5kbits/s speed=0.0494x    frame=   11 fps=2.8 q=-0.0 size=       4kB time=00:00:00.20 bitrate= 159.0kbits/s speed=0.0508x    frame=   13 fps=2.8 q=-0.0 size=     131kB time=00:00:00.24 bitrate=4438.5kbits/s speed=0.0517x    frame=   15 fps=2.9 q=-0.0 size=     131kB time=00:00:00.28 bitrate=3806.7kbits/s speed=0.0543x    frame=   17 fps=1.7 q=-0.0 size=     131kB time=00:00:00.32 bitrate=3332.3kbits/s speed=0.0318x    frame=   18 fps=1.4 q=-0.0 size=     131kB time=00:00:00.34 bitrate=3136.9kbits/s speed=0.0267x    frame=   20 fps=1.5 q=-0.0 size=     131kB time=00:00:00.38 bitrate=2807.6kbits/s speed=0.0283x    frame=   22 fps=1.6 q=-0.0 size=     131kB time=00:00:00.42 bitrate=2540.8kbits/s speed=0.0297x    frame=   24 fps=1.6 q=-0.0 size=     131kB time=00:00:00.46 bitrate=2320.3kbits/s speed=0.031x    frame=   26 fps=1.7 q=-0.0 size=     258kB time=00:00:00.50 bitrate=4220.5kbits/s speed=0.0325x    frame=   28 fps=1.7 q=-0.0 size=     258kB time=00:00:00.54 bitrate=3908.4kbits/s speed=0.0337x    frame=   30 fps=1.8 q=-0.0 size=     258kB time=00:00:00.58 bitrate=3639.4kbits/s speed=0.0347x    frame=   32 fps=1.8 q=-0.0 size=     258kB time=00:00:00.62 bitrate=3404.9kbits/s speed=0.0356x    frame=   34 fps=1.9 q=-0.0 size=     258kB time=00:00:00.66 bitrate=3198.9kbits/s speed=0.0364x    frame=   36 fps=1.9 q=-0.0 size=     258kB time=00:00:00.70 bitrate=3016.4kbits/s speed=0.0372x    frame=   38 fps=2.0 q=-0.0 size=     387kB time=00:00:00.74 bitrate=4274.2kbits/s speed=0.0382x    frame=   40 fps=2.0 q=-0.0 size=     387kB time=00:00:00.78 bitrate=4055.3kbits/s speed=0.0389x    frame=   42 fps=2.0 q=-0.0 size=     387kB time=00:00:00.82 bitrate=3857.7kbits/s speed=0.0396x    frame=   44 fps=2.1 q=-0.0 size=     387kB time=00:00:00.86 bitrate=3678.5kbits/s speed=0.0401x    frame=   46 fps=2.1 q=-0.0 size=     387kB time=00:00:00.90 bitrate=3515.2kbits/s speed=0.0407x    frame=   48 fps=2.1 q=-0.0 size=     387kB time=00:00:00.94 bitrate=3365.8kbits/s speed=0.0412x    frame=   50 fps=2.1 q=-0.0 size=     512kB time=00:00:00.98 bitrate=4278.0kbits/s speed=0.0419x    frame=   52 fps=2.2 q=-0.0 size=     512kB time=00:00:01.02 bitrate=4110.4kbits/s speed=0.0424x    frame=   54 fps=2.2 q=-0.0 size=     512kB time=00:00:01.06 bitrate=3955.4kbits/s speed=0.0429x    frame=   56 fps=2.2 q=-0.0 size=     512kB time=00:00:01.10 bitrate=3811.7kbits/s speed=0.0432x    frame=   58 fps=2.2 q=-0.0 size=     512kB time=00:00:01.14 bitrate=3678.1kbits/s speed=0.0436x    frame=   60 fps=2.2 q=-0.0 size=     512kB time=00:00:01.18 bitrate=3553.5kbits/s speed=0.0439x    frame=   62 fps=2.3 q=-0.0 size=     639kB time=00:00:01.22 bitrate=4286.4kbits/s speed=0.0445x    frame=   64 fps=2.3 q=-0.0 size=     639kB time=00:00:01.26 bitrate=4150.4kbits/s speed=0.0449x    frame=   66 fps=2.3 q=-0.0 size=     639kB time=00:00:01.30 bitrate=4022.8kbits/s speed=0.0452x    frame=   68 fps=2.3 q=-0.0 size=     639kB time=00:00:01.34 bitrate=3902.8kbits/s speed=0.0455x    frame=   70 fps=2.3 q=-0.0 size=     639kB time=00:00:01.38 bitrate=3789.7kbits/s speed=0.0458x    frame=   72 fps=2.3 q=-0.0 size=     639kB time=00:00:01.42 bitrate=3683.1kbits/s speed=0.046x    frame=   74 fps=2.4 q=-0.0 size=     764kB time=00:00:01.46 bitrate=4281.0kbits/s speed=0.0465x    frame=   76 fps=2.4 q=-0.0 size=     764kB time=00:00:01.50 bitrate=4167.0kbits/s speed=0.0468x    frame=   78 fps=2.4 q=-0.0 size=     764kB time=00:00:01.54 bitrate=4058.8kbits/s speed=0.047x    frame=   80 fps=2.4 q=-0.0 size=     764kB time=00:00:01.58 bitrate=3956.1kbits/s speed=0.0472x    frame=   82 fps=2.4 q=-0.0 size=     764kB time=00:00:01.62 bitrate=3858.5kbits/s speed=0.0474x    frame=   84 fps=2.4 q=-0.0 size=     764kB time=00:00:01.66 bitrate=3765.6kbits/s speed=0.0476x    frame=   86 fps=2.4 q=-0.0 size=     888kB time=00:00:01.70 bitrate=4274.9kbits/s speed=0.048x    frame=   88 fps=2.4 q=-0.0 size=     888kB time=00:00:01.74 bitrate=4176.7kbits/s speed=0.0482x    frame=   90 fps=2.4 q=-0.0 size=     888kB time=00:00:01.78 bitrate=4082.9kbits/s speed=0.0484x    frame=   92 fps=2.5 q=-0.0 size=     888kB time=00:00:01.82 bitrate=3993.2kbits/s speed=0.0486x    frame=   94 fps=2.5 q=-0.0 size=     888kB time=00:00:01.86 bitrate=3907.4kbits/s speed=0.0487x    frame=   96 fps=2.5 q=-0.0 size=     888kB time=00:00:01.90 bitrate=3825.1kbits/s speed=0.0489x    frame=   98 fps=2.5 q=-0.0 size=    1011kB time=00:00:01.94 bitrate=4265.7kbits/s speed=0.0492x    frame=  100 fps=2.5 q=-0.0 size=    1011kB time=00:00:01.98 bitrate=4179.6kbits/s speed=0.0494x    frame=  102 fps=2.5 q=-0.0 size=    1011kB time=00:00:02.02 bitrate=4096.9kbits/s speed=0.0495x    frame=  104 fps=2.5 q=-0.0 size=    1011kB time=00:00:02.06 bitrate=4017.4kbits/s speed=0.0497x    frame=  106 fps=2.5 q=-0.0 size=    1011kB time=00:00:02.10 bitrate=3940.9kbits/s speed=0.0498x    frame=  108 fps=2.5 q=-0.0 size=    1011kB time=00:00:02.14 bitrate=3867.2kbits/s speed=0.0499x    frame=  110 fps=2.5 q=-0.0 size=    1137kB time=00:00:02.18 bitrate=4270.4kbits/s speed=0.0502x    frame=  112 fps=2.5 q=-0.0 size=    1137kB time=00:00:02.22 bitrate=4193.5kbits/s speed=0.0504x    frame=  114 fps=2.5 q=-0.0 size=    1137kB time=00:00:02.26 bitrate=4119.3kbits/s speed=0.0505x    frame=  116 fps=2.6 q=-0.0 size=    1137kB time=00:00:02.30 bitrate=4047.7kbits/s speed=0.0506x    frame=  118 fps=2.6 q=-0.0 size=    1137kB time=00:00:02.34 bitrate=3978.6kbits/s speed=0.0507x    frame=  120 fps=2.6 q=-0.0 size=    1137kB time=00:00:02.38 bitrate=3911.7kbits/s speed=0.0508x    frame=  122 fps=2.6 q=-0.0 size=    1261kB time=00:00:02.42 bitrate=4266.8kbits/s speed=0.0511x    frame=  124 fps=2.6 q=-0.0 size=    1261kB time=00:00:02.46 bitrate=4197.4kbits/s speed=0.0512x    frame=  126 fps=2.6 q=-0.0 size=    1261kB time=00:00:02.50 bitrate=4130.3kbits/s speed=0.0513x    frame=  128 fps=2.6 q=-0.0 size=    1261kB time=00:00:02.54 bitrate=4065.3kbits/s speed=0.0514x    frame=  130 fps=2.6 q=-0.0 size=    1261kB time=00:00:02.58 bitrate=4002.3kbits/s speed=0.0515x    frame=  132 fps=2.6 q=-0.0 size=    1261kB time=00:00:02.62 bitrate=3941.2kbits/s speed=0.0516x    frame=  134 fps=2.6 q=-0.0 size=    1386kB time=00:00:02.66 bitrate=4266.1kbits/s speed=0.0518x    frame=  136 fps=2.6 q=-0.0 size=    1386kB time=00:00:02.70 bitrate=4202.9kbits/s speed=0.0519x    frame=  138 fps=2.6 q=-0.0 size=    1386kB time=00:00:02.74 bitrate=4141.6kbits/s speed=0.052x    frame=  140 fps=2.6 q=-0.0 size=    1386kB time=00:00:02.78 bitrate=4082.0kbits/s speed=0.0521x    frame=  142 fps=2.6 q=-0.0 size=    1386kB time=00:00:02.82 bitrate=4024.1kbits/s speed=0.0521x    frame=  144 fps=2.6 q=-0.0 size=    1386kB time=00:00:02.86 bitrate=3967.9kbits/s speed=0.0522x    frame=  146 fps=2.6 q=-0.0 size=    1509kB time=00:00:02.90 bitrate=4261.5kbits/s speed=0.0524x    frame=  148 fps=2.6 q=-0.0 size=    1509kB time=00:00:02.94 bitrate=4203.6kbits/s speed=0.0525x    frame=  150 fps=2.6 q=-0.0 size=    1509kB time=00:00:02.98 bitrate=4147.2kbits/s speed=0.0526x    frame=  152 fps=2.6 q=-0.0 size=    1509kB time=00:00:03.02 bitrate=4092.3kbits/s speed=0.0526x    frame=  154 fps=2.6 q=-0.0 size=    1509kB time=00:00:03.06 bitrate=4038.8kbits/s speed=0.0527x    frame=  156 fps=2.7 q=-0.0 size=    1509kB time=00:00:03.10 bitrate=3986.7kbits/s speed=0.0527x    frame=  158 fps=2.7 q=-0.0 size=    1634kB time=00:00:03.14 bitrate=4260.5kbits/s speed=0.0529x    frame=  160 fps=2.7 q=-0.0 size=    1634kB time=00:00:03.18 bitrate=4206.9kbits/s speed=0.053x    frame=  162 fps=2.7 q=-0.0 size=    1634kB time=00:00:03.22 bitrate=4154.7kbits/s speed=0.053x    frame=  164 fps=2.7 q=-0.0 size=    1634kB time=00:00:03.26 bitrate=4103.7kbits/s speed=0.0531x    frame=  166 fps=2.7 q=-0.0 size=    1634kB time=00:00:03.30 bitrate=4054.0kbits/s speed=0.0531x    frame=  168 fps=2.7 q=-0.0 size=    1634kB time=00:00:03.34 bitrate=4005.5kbits/s speed=0.0531x    frame=  170 fps=2.7 q=-0.0 size=    1759kB time=00:00:03.38 bitrate=4262.9kbits/s speed=0.0533x    frame=  172 fps=2.7 q=-0.0 size=    1759kB time=00:00:03.42 bitrate=4213.1kbits/s speed=0.0534x    frame=  174 fps=2.7 q=-0.0 size=    1759kB time=00:00:03.46 bitrate=4164.4kbits/s speed=0.0534x    frame=  176 fps=2.7 q=-0.0 size=    1759kB time=00:00:03.50 bitrate=4116.8kbits/s speed=0.0534x    frame=  178 fps=2.7 q=-0.0 size=    1759kB time=00:00:03.54 bitrate=4070.3kbits/s speed=0.0535x    frame=  180 fps=2.7 q=-0.0 size=    1759kB time=00:00:03.58 bitrate=4024.8kbits/s speed=0.0535x    frame=  182 fps=2.7 q=-0.0 size=    1883kB time=00:00:03.62 bitrate=4261.1kbits/s speed=0.0537x    frame=  184 fps=2.7 q=-0.0 size=    1883kB time=00:00:03.66 bitrate=4214.5kbits/s speed=0.0537x    frame=  186 fps=2.7 q=-0.0 size=    1883kB time=00:00:03.70 bitrate=4169.0kbits/s speed=0.0538x    frame=  188 fps=2.7 q=-0.0 size=    1883kB time=00:00:03.74 bitrate=4124.4kbits/s speed=0.0538x    frame=  190 fps=2.7 q=-0.0 size=    1883kB time=00:00:03.78 bitrate=4080.8kbits/s speed=0.0538x    frame=  192 fps=2.7 q=-0.0 size=    1883kB time=00:00:03.82 bitrate=4038.1kbits/s speed=0.0539x    frame=  194 fps=2.7 q=-0.0 size=    2009kB time=00:00:03.86 bitrate=4262.1kbits/s speed=0.054x    frame=  196 fps=2.7 q=-0.0 size=    2009kB time=00:00:03.90 bitrate=4218.4kbits/s speed=0.0541x    frame=  198 fps=2.7 q=-0.0 size=    2009kB time=00:00:03.94 bitrate=4175.6kbits/s speed=0.0541x    frame=  200 fps=2.7 q=-0.0 size=    2009kB time=00:00:03.98 bitrate=4133.6kbits/s speed=0.0541x    frame=  202 fps=2.7 q=-0.0 size=    2009kB time=00:00:04.02 bitrate=4092.5kbits/s speed=0.0541x    frame=  204 fps=2.7 q=-0.0 size=    2009kB time=00:00:04.06 bitrate=4052.2kbits/s speed=0.0542x    frame=  206 fps=2.7 q=-0.0 size=    2135kB time=00:00:04.10 bitrate=4265.3kbits/s speed=0.0543x    frame=  208 fps=2.7 q=-0.0 size=    2135kB time=00:00:04.14 bitrate=4224.1kbits/s speed=0.0544x    frame=  210 fps=2.7 q=-0.0 size=    2135kB time=00:00:04.18 bitrate=4183.7kbits/s speed=0.0544x    frame=  212 fps=2.7 q=-0.0 size=    2135kB time=00:00:04.22 bitrate=4144.0kbits/s speed=0.0544x    frame=  214 fps=2.7 q=-0.0 size=    2135kB time=00:00:04.26 bitrate=4105.1kbits/s speed=0.0544x    frame=  216 fps=2.7 q=-0.0 size=    2135kB time=00:00:04.30 bitrate=4067.0kbits/s speed=0.0544x    frame=  218 fps=2.7 q=-0.0 size=    2262kB time=00:00:04.34 bitrate=4269.3kbits/s speed=0.0546x    frame=  220 fps=2.7 q=-0.0 size=    2262kB time=00:00:04.38 bitrate=4230.3kbits/s speed=0.0546x    frame=  222 fps=2.7 q=-0.0 size=    2262kB time=00:00:04.42 bitrate=4192.0kbits/s speed=0.0546x    frame=  224 fps=2.7 q=-0.0 size=    2262kB time=00:00:04.46 bitrate=4154.4kbits/s speed=0.0547x    frame=  226 fps=2.7 q=-0.0 size=    2262kB time=00:00:04.50 bitrate=4117.5kbits/s speed=0.0547x    frame=  228 fps=2.7 q=-0.0 size=    2262kB time=00:00:04.54 bitrate=4081.2kbits/s speed=0.0547x    frame=  230 fps=2.8 q=-0.0 size=    2389kB time=00:00:04.58 bitrate=4272.9kbits/s speed=0.0548x    frame=  232 fps=2.8 q=-0.0 size=    2389kB time=00:00:04.62 bitrate=4235.9kbits/s speed=0.0548x    frame=  234 fps=2.8 q=-0.0 size=    2389kB time=00:00:04.66 bitrate=4199.5kbits/s speed=0.0549x    frame=  236 fps=2.8 q=-0.0 size=    2389kB time=00:00:04.70 bitrate=4163.8kbits/s speed=0.0549x    frame=  238 fps=2.8 q=-0.0 size=    2389kB time=00:00:04.74 bitrate=4128.7kbits/s speed=0.0549x    frame=  240 fps=2.8 q=-0.0 size=    2389kB time=00:00:04.78 bitrate=4094.1kbits/s speed=0.0549x    frame=  242 fps=2.8 q=-0.0 size=    2518kB time=00:00:04.82 bitrate=4277.9kbits/s speed=0.055x    frame=  244 fps=2.8 q=-0.0 size=    2518kB time=00:00:04.86 bitrate=4242.7kbits/s speed=0.055x    frame=  246 fps=2.8 q=-0.0 size=    2518kB time=00:00:04.90 bitrate=4208.1kbits/s speed=0.0551x    frame=  248 fps=2.8 q=-0.0 size=    2518kB time=00:00:04.94 bitrate=4174.0kbits/s speed=0.0551x    frame=  250 fps=2.8 q=-0.0 size=    2518kB time=00:00:04.98 bitrate=4140.5kbits/s speed=0.0551x    frame=  252 fps=2.8 q=-0.0 size=    2518kB time=00:00:05.02 bitrate=4107.5kbits/s speed=0.0551x    frame=  254 fps=2.8 q=-0.0 size=    2645kB time=00:00:05.06 bitrate=4281.5kbits/s speed=0.0552x    frame=  256 fps=2.8 q=-0.0 size=    2645kB time=00:00:05.10 bitrate=4247.9kbits/s speed=0.0552x    frame=  258 fps=2.8 q=-0.0 size=    2645kB time=00:00:05.14 bitrate=4214.8kbits/s speed=0.0553x    frame=  260 fps=2.8 q=-0.0 size=    2645kB time=00:00:05.18 bitrate=4182.3kbits/s speed=0.0553x    frame=  262 fps=2.8 q=-0.0 size=    2645kB time=00:00:05.22 bitrate=4150.3kbits/s speed=0.0553x    frame=  264 fps=2.8 q=-0.0 size=    2645kB time=00:00:05.26 bitrate=4118.7kbits/s speed=0.0553x    frame=  266 fps=2.8 q=-0.0 size=    2772kB time=00:00:05.30 bitrate=4284.5kbits/s speed=0.0554x    frame=  268 fps=2.8 q=-0.0 size=    2772kB time=00:00:05.34 bitrate=4252.4kbits/s speed=0.0554x    frame=  270 fps=2.8 q=-0.0 size=    2772kB time=00:00:05.38 bitrate=4220.8kbits/s speed=0.0554x    frame=  272 fps=2.8 q=-0.0 size=    2772kB time=00:00:05.42 bitrate=4189.6kbits/s speed=0.0554x    frame=  274 fps=2.8 q=-0.0 size=    2772kB time=00:00:05.46 bitrate=4158.9kbits/s speed=0.0554x    frame=  276 fps=2.8 q=-0.0 size=    2772kB time=00:00:05.50 bitrate=4128.7kbits/s speed=0.0555x    frame=  278 fps=2.8 q=-0.0 size=    2900kB time=00:00:05.54 bitrate=4287.1kbits/s speed=0.0555x    frame=  280 fps=2.8 q=-0.0 size=    2900kB time=00:00:05.58 bitrate=4256.4kbits/s speed=0.0556x    frame=  282 fps=2.8 q=-0.0 size=    2900kB time=00:00:05.62 bitrate=4226.1kbits/s speed=0.0556x    frame=  284 fps=2.8 q=-0.0 size=    2900kB time=00:00:05.66 bitrate=4196.2kbits/s speed=0.0556x    frame=  286 fps=2.8 q=-0.0 size=    2900kB time=00:00:05.70 bitrate=4166.8kbits/s speed=0.0556x    frame=  288 fps=2.8 q=-0.0 size=    2900kB time=00:00:05.74 bitrate=4137.7kbits/s speed=0.0556x    frame=  290 fps=2.8 q=-0.0 size=    3028kB time=00:00:05.78 bitrate=4290.5kbits/s speed=0.0557x    frame=  292 fps=2.8 q=-0.0 size=    3028kB time=00:00:05.82 bitrate=4261.0kbits/s speed=0.0557x    frame=  294 fps=2.8 q=-0.0 size=    3028kB time=00:00:05.86 bitrate=4231.9kbits/s speed=0.0557x    frame=  296 fps=2.8 q=-0.0 size=    3028kB time=00:00:05.90 bitrate=4203.3kbits/s speed=0.0557x    frame=  298 fps=2.8 q=-0.0 size=    3028kB time=00:00:05.94 bitrate=4175.0kbits/s speed=0.0557x    frame=  300 fps=2.8 q=-0.0 size=    3028kB time=00:00:05.98 bitrate=4147.0kbits/s speed=0.0557x    frame=  302 fps=2.8 q=-0.0 size=    3155kB time=00:00:06.02 bitrate=4293.3kbits/s speed=0.0558x    frame=  304 fps=2.8 q=-0.0 size=    3155kB time=00:00:06.06 bitrate=4264.9kbits/s speed=0.0558x    frame=  306 fps=2.8 q=-0.0 size=    3155kB time=00:00:06.10 bitrate=4237.0kbits/s speed=0.0558x    frame=  308 fps=2.8 q=-0.0 size=    3155kB time=00:00:06.14 bitrate=4209.4kbits/s speed=0.0558x    frame=  310 fps=2.8 q=-0.0 size=    3155kB time=00:00:06.18 bitrate=4182.1kbits/s speed=0.0558x    frame=  312 fps=2.8 q=-0.0 size=    3155kB time=00:00:06.22 bitrate=4155.2kbits/s speed=0.0558x    frame=  314 fps=2.8 q=-0.0 size=    3281kB time=00:00:06.26 bitrate=4293.3kbits/s speed=0.0559x    frame=  316 fps=2.8 q=-0.0 size=    3281kB time=00:00:06.30 bitrate=4266.0kbits/s speed=0.0559x    frame=  318 fps=2.8 q=-0.0 size=    3281kB time=00:00:06.34 bitrate=4239.1kbits/s speed=0.0559x    frame=  320 fps=2.8 q=-0.0 size=    3281kB time=00:00:06.38 bitrate=4212.5kbits/s speed=0.0559x    frame=  322 fps=2.8 q=-0.0 size=    3281kB time=00:00:06.42 bitrate=4186.3kbits/s speed=0.0559x    frame=  324 fps=2.8 q=-0.0 size=    3281kB time=00:00:06.46 bitrate=4160.4kbits/s speed=0.0559x    frame=  326 fps=2.8 q=-0.0 size=    3405kB time=00:00:06.50 bitrate=4290.2kbits/s speed=0.0559x    frame=  327 fps=2.8 q=-0.0 size=    3405kB time=00:00:06.52 bitrate=4277.0kbits/s speed=0.0558x    frame=  329 fps=2.8 q=-0.0 size=    3405kB time=00:00:06.56 bitrate=4250.9kbits/s speed=0.0558x    frame=  331 fps=2.8 q=-0.0 size=    3405kB time=00:00:06.60 bitrate=4225.2kbits/s speed=0.0558x    frame=  333 fps=2.8 q=-0.0 size=    3405kB time=00:00:06.64 bitrate=4199.7kbits/s speed=0.0558x    frame=  335 fps=2.8 q=-0.0 size=    3405kB time=00:00:06.68 bitrate=4174.6kbits/s speed=0.0558x    frame=  337 fps=2.8 q=-0.0 size=    3531kB time=00:00:06.72 bitrate=4303.2kbits/s speed=0.0558x    frame=  339 fps=2.8 q=-0.0 size=    3531kB time=00:00:06.76 bitrate=4277.8kbits/s speed=0.0559x    frame=  341 fps=2.8 q=-0.0 size=    3531kB time=00:00:06.80 bitrate=4252.6kbits/s speed=0.0559x    frame=  343 fps=2.8 q=-0.0 size=    3531kB time=00:00:06.84 bitrate=4227.7kbits/s speed=0.0559x    frame=  345 fps=2.8 q=-0.0 size=    3531kB time=00:00:06.88 bitrate=4203.2kbits/s speed=0.0559x    frame=  347 fps=2.8 q=-0.0 size=    3531kB time=00:00:06.92 bitrate=4178.9kbits/s speed=0.0559x    frame=  349 fps=2.8 q=-0.0 size=    3657kB time=00:00:06.96 bitrate=4303.5kbits/s speed=0.0559x    frame=  351 fps=2.8 q=-0.0 size=    3657kB time=00:00:07.00 bitrate=4279.0kbits/s speed=0.056x    frame=  353 fps=2.8 q=-0.0 size=    3657kB time=00:00:07.04 bitrate=4254.6kbits/s speed=0.056x    frame=  355 fps=2.8 q=-0.0 size=    3657kB time=00:00:07.08 bitrate=4230.6kbits/s speed=0.056x    frame=  357 fps=2.8 q=-0.0 size=    3657kB time=00:00:07.12 bitrate=4206.8kbits/s speed=0.056x    frame=  359 fps=2.8 q=-0.0 size=    3657kB time=00:00:07.16 bitrate=4183.3kbits/s speed=0.056x    frame=  361 fps=2.8 q=-0.0 size=    3783kB time=00:00:07.20 bitrate=4303.6kbits/s speed=0.056x    frame=  363 fps=2.8 q=-0.0 size=    3783kB time=00:00:07.24 bitrate=4279.8kbits/s speed=0.0561x    frame=  365 fps=2.8 q=-0.0 size=    3783kB time=00:00:07.28 bitrate=4256.3kbits/s speed=0.0561x    frame=  367 fps=2.8 q=-0.0 size=    3783kB time=00:00:07.32 bitrate=4233.1kbits/s speed=0.0561x    frame=  369 fps=2.8 q=-0.0 size=    3783kB time=00:00:07.36 bitrate=4210.1kbits/s speed=0.0561x    frame=  371 fps=2.8 q=-0.0 size=    3783kB time=00:00:07.40 bitrate=4187.3kbits/s speed=0.0561x    frame=  373 fps=2.8 q=-0.0 size=    3910kB time=00:00:07.44 bitrate=4304.5kbits/s speed=0.0561x    frame=  375 fps=2.8 q=-0.0 size=    3910kB time=00:00:07.48 bitrate=4281.4kbits/s speed=0.0562x    frame=  377 fps=2.8 q=-0.0 size=    3910kB time=00:00:07.52 bitrate=4258.7kbits/s speed=0.0562x    frame=  379 fps=2.8 q=-0.0 size=    3910kB time=00:00:07.56 bitrate=4236.1kbits/s speed=0.0562x    frame=  381 fps=2.8 q=-0.0 size=    3910kB time=00:00:07.60 bitrate=4213.9kbits/s speed=0.0562x    frame=  383 fps=2.8 q=-0.0 size=    3910kB time=00:00:07.64 bitrate=4191.8kbits/s speed=0.0561x    frame=  385 fps=2.8 q=-0.0 size=    4035kB time=00:00:07.68 bitrate=4303.7kbits/s speed=0.0561x    frame=  387 fps=2.8 q=-0.0 size=    4035kB time=00:00:07.72 bitrate=4281.4kbits/s speed=0.0562x    frame=  389 fps=2.8 q=-0.0 size=    4035kB time=00:00:07.76 bitrate=4259.3kbits/s speed=0.0562x    frame=  391 fps=2.8 q=-0.0 size=    4035kB time=00:00:07.80 bitrate=4237.5kbits/s speed=0.0562x    frame=  393 fps=2.8 q=-0.0 size=    4035kB time=00:00:07.84 bitrate=4215.9kbits/s speed=0.0562x    frame=  395 fps=2.8 q=-0.0 size=    4035kB time=00:00:07.88 bitrate=4194.5kbits/s speed=0.0562x    frame=  397 fps=2.8 q=-0.0 size=    4159kB time=00:00:07.92 bitrate=4301.6kbits/s speed=0.0562x    frame=  399 fps=2.8 q=-0.0 size=    4159kB time=00:00:07.96 bitrate=4280.0kbits/s speed=0.0563x    frame=  401 fps=2.8 q=-0.0 size=    4159kB time=00:00:08.00 bitrate=4258.6kbits/s speed=0.0563x    frame=  403 fps=2.8 q=-0.0 size=    4159kB time=00:00:08.04 bitrate=4237.5kbits/s speed=0.0563x    frame=  405 fps=2.8 q=-0.0 size=    4159kB time=00:00:08.08 bitrate=4216.5kbits/s speed=0.0562x    frame=  407 fps=2.8 q=-0.0 size=    4159kB time=00:00:08.12 bitrate=4195.7kbits/s speed=0.0562x    frame=  409 fps=2.8 q=-0.0 size=    4282kB time=00:00:08.16 bitrate=4298.2kbits/s speed=0.0562x    frame=  411 fps=2.8 q=-0.0 size=    4282kB time=00:00:08.20 bitrate=4277.2kbits/s speed=0.0563x    frame=  413 fps=2.8 q=-0.0 size=    4282kB time=00:00:08.24 bitrate=4256.5kbits/s speed=0.0563x    frame=  415 fps=2.8 q=-0.0 size=    4282kB time=00:00:08.28 bitrate=4235.9kbits/s speed=0.0563x    frame=  417 fps=2.8 q=-0.0 size=    4282kB time=00:00:08.32 bitrate=4215.6kbits/s speed=0.0563x    frame=  419 fps=2.8 q=-0.0 size=    4282kB time=00:00:08.36 bitrate=4195.4kbits/s speed=0.0563x    frame=  421 fps=2.8 q=-0.0 size=    4400kB time=00:00:08.40 bitrate=4290.6kbits/s speed=0.0563x    frame=  423 fps=2.8 q=-0.0 size=    4400kB time=00:00:08.44 bitrate=4270.2kbits/s speed=0.0563x    frame=  425 fps=2.8 q=-0.0 size=    4400kB time=00:00:08.48 bitrate=4250.1kbits/s speed=0.0563x    frame=  427 fps=2.8 q=-0.0 size=    4400kB time=00:00:08.52 bitrate=4230.1kbits/s speed=0.0563x    frame=  429 fps=2.8 q=-0.0 size=    4400kB time=00:00:08.56 bitrate=4210.4kbits/s speed=0.0563x    frame=  431 fps=2.8 q=-0.0 size=    4400kB time=00:00:08.60 bitrate=4190.8kbits/s speed=0.0563x    frame=  433 fps=2.8 q=-0.0 size=    4517kB time=00:00:08.64 bitrate=4282.7kbits/s speed=0.0563x    frame=  435 fps=2.8 q=-0.0 size=    4517kB time=00:00:08.68 bitrate=4263.0kbits/s speed=0.0563x    frame=  437 fps=2.8 q=-0.0 size=    4517kB time=00:00:08.72 bitrate=4243.4kbits/s speed=0.0563x    frame=  439 fps=2.8 q=-0.0 size=    4517kB time=00:00:08.76 bitrate=4224.1kbits/s speed=0.0563x    frame=  441 fps=2.8 q=-0.0 size=    4517kB time=00:00:08.80 bitrate=4204.9kbits/s speed=0.0563x    frame=  443 fps=2.8 q=-0.0 size=    4517kB time=00:00:08.84 bitrate=4185.8kbits/s speed=0.0563x    frame=  445 fps=2.8 q=-0.0 size=    4638kB time=00:00:08.88 bitrate=4278.2kbits/s speed=0.0563x    frame=  447 fps=2.8 q=-0.0 size=    4638kB time=00:00:08.92 bitrate=4259.0kbits/s speed=0.0564x    frame=  449 fps=2.8 q=-0.0 size=    4638kB time=00:00:08.96 bitrate=4240.0kbits/s speed=0.0564x    frame=  451 fps=2.8 q=-0.0 size=    4638kB time=00:00:09.00 bitrate=4221.2kbits/s speed=0.0564x    frame=  453 fps=2.8 q=-0.0 size=    4638kB time=00:00:09.04 bitrate=4202.5kbits/s speed=0.0563x    frame=  455 fps=2.8 q=-0.0 size=    4638kB time=00:00:09.08 bitrate=4184.0kbits/s speed=0.0563x    frame=  457 fps=2.8 q=-0.0 size=    4762kB time=00:00:09.12 bitrate=4277.0kbits/s speed=0.0563x    frame=  459 fps=2.8 q=-0.0 size=    4762kB time=00:00:09.16 bitrate=4258.3kbits/s speed=0.0564x    frame=  461 fps=2.8 q=-0.0 size=    4762kB time=00:00:09.20 bitrate=4239.8kbits/s speed=0.0564x    frame=  463 fps=2.8 q=-0.0 size=    4762kB time=00:00:09.24 bitrate=4221.5kbits/s speed=0.0564x    frame=  465 fps=2.8 q=-0.0 size=    4762kB time=00:00:09.28 bitrate=4203.3kbits/s speed=0.0564x    frame=  467 fps=2.8 q=-0.0 size=    4762kB time=00:00:09.32 bitrate=4185.2kbits/s speed=0.0564x    frame=  469 fps=2.8 q=-0.0 size=    4884kB time=00:00:09.36 bitrate=4274.0kbits/s speed=0.0564x    frame=  471 fps=2.8 q=-0.0 size=    4884kB time=00:00:09.40 bitrate=4255.8kbits/s speed=0.0564x    frame=  473 fps=2.8 q=-0.0 size=    4884kB time=00:00:09.44 bitrate=4237.8kbits/s speed=0.0564x    frame=  475 fps=2.8 q=-0.0 size=    4884kB time=00:00:09.48 bitrate=4219.9kbits/s speed=0.0564x    frame=  477 fps=2.8 q=-0.0 size=    4884kB time=00:00:09.52 bitrate=4202.2kbits/s speed=0.0564x    frame=  479 fps=2.8 q=-0.0 size=    4884kB time=00:00:09.56 bitrate=4184.6kbits/s speed=0.0564x    frame=  481 fps=2.8 q=-0.0 size=    5008kB time=00:00:09.60 bitrate=4273.3kbits/s speed=0.0564x    frame=  483 fps=2.8 q=-0.0 size=    5008kB time=00:00:09.64 bitrate=4255.6kbits/s speed=0.0565x    frame=  485 fps=2.8 q=-0.0 size=    5008kB time=00:00:09.68 bitrate=4238.0kbits/s speed=0.0565x    frame=  487 fps=2.8 q=-0.0 size=    5008kB time=00:00:09.72 bitrate=4220.6kbits/s speed=0.0565x    frame=  489 fps=2.8 q=-0.0 size=    5008kB time=00:00:09.76 bitrate=4203.3kbits/s speed=0.0565x    frame=  491 fps=2.8 q=-0.0 size=    5008kB time=00:00:09.80 bitrate=4186.1kbits/s speed=0.0565x    frame=  493 fps=2.8 q=-0.0 size=    5132kB time=00:00:09.84 bitrate=4272.4kbits/s speed=0.0565x    frame=  495 fps=2.8 q=-0.0 size=    5132kB time=00:00:09.88 bitrate=4255.1kbits/s speed=0.0565x    frame=  497 fps=2.8 q=-0.0 size=    5132kB time=00:00:09.92 bitrate=4237.9kbits/s speed=0.0565x    frame=  499 fps=2.8 q=-0.0 size=    5132kB time=00:00:09.96 bitrate=4220.9kbits/s speed=0.0565x    frame=  500 fps=2.8 q=-0.0 size=    5132kB time=00:00:09.98 bitrate=4212.5kbits/s speed=0.0564x    frame=  500 fps=2.8 q=-0.0 Lsize=    5258kB time=00:00:09.98 bitrate=4315.3kbits/s speed=0.0564x    
video:5249kB audio:0kB subtitle:0kB other streams:0kB global headers:3kB muxing overhead: 0.163754%
bench: utime=157.244s
bench: maxrss=183360kB
